# xmcd
#
# Track frame offsets:
#	150
#	39052
#	64638
#	89377
#	112512
#	142762
#	194422
#	238369
#	264701
#	290906
#
# Disc length: 4201 seconds
#
# Revision: 0
# Processed by: cddbd v1.5.1PL0 Copyright (c) Steve Scherf et al.
# Submitted via: audiograbber 1.83.01
#
DISCID=8910670a
DTITLE=Varius - Herbert Plum Blues
DYEAR=2005
DGENRE=Blues
TTITLE0=B.B. King and Eric Clapton - Three o'clock Blues
TTITLE1=Eric Clapton - Kind-Hearted-Woman
TTITLE2=Eric Clapton - Queen of Spades
TTITLE3=Grachmusikoff - Drägglacha Blues
TTITLE4=Rory Gallagher - Blues Guitar Solo
TTITLE5=Copeland Stevie Ray Vaughan and Double Trouble  - Tin Pan Alley (AKA Roug
TTITLE5=hest Place in Town)
TTITLE6=Stevie Ray Vaughan and Double Trouble  - Texas Flood [Video Version]
TTITLE7=Copeland Stevie Ray Vaughan and Double Trouble  - May I Have a Talk With 
TTITLE7=You
TTITLE8=Gipsy Kings - Hotel California
TTITLE9=Blues Brothers - Shotgun Blues
EXTD=
EXTT0=
EXTT1=
EXTT2=
EXTT3=
EXTT4=
EXTT5=
EXTT6=
EXTT7=
EXTT8=
EXTT9=
PLAYORDER=
